<svg width="642" height="607" viewBox="0 0 642 607" fill="none" xmlns="http://www.w3.org/2000/svg">
<path d="M56.981 311H583.562C586.007 311 588.094 312.769 588.494 315.181L635.136 596.181C635.642 599.228 633.292 602 630.203 602H11.7388C8.66029 602 6.31304 599.245 6.8024 596.205L52.0446 315.205C52.4347 312.782 54.5264 311 56.981 311Z" stroke="#4B535A" stroke-width="10"/>
<rect x="54" y="5" width="534" height="296" rx="5" stroke="#4B535A" stroke-width="10"/>
<path d="M281.417 461.667C289.334 469.583 305.167 477.5 321 477.5M321 477.5C340.792 477.5 360.584 473.542 360.584 453.75C360.584 433.958 341.184 430 321 430M321 477.5V430M321 477.5V501.25M321 430C301.209 430 281.417 426.042 281.417 406.25C281.417 386.458 301.209 382.5 321 382.5M321 430V382.5M321 382.5C336.834 382.5 352.667 390.417 360.584 398.333M321 382.5V358.75" stroke="#4B535A" stroke-width="10"/>
<line x1="49" y1="91" x2="593" y2="91" stroke="#4B535A" stroke-width="10"/>
<line x1="141" y1="251" x2="211" y2="251" stroke="#4B535A" stroke-width="10"/>
<line x1="239" y1="251" x2="309" y2="251" stroke="#4B535A" stroke-width="10"/>
<line x1="346" y1="251" x2="416" y2="251" stroke="#4B535A" stroke-width="10"/>
<line x1="457" y1="251" x2="527" y2="251" stroke="#4B535A" stroke-width="10"/>
<line x1="144" y1="438" x2="226" y2="438" stroke="#4B535A" stroke-width="10"/>
<line x1="416" y1="438" x2="498" y2="438" stroke="#4B535A" stroke-width="10"/>
<line x1="10" y1="544" x2="632" y2="544" stroke="#4B535A" stroke-width="10"/>
</svg>
