<svg width="93" height="41" viewBox="0 0 93 41" fill="none" xmlns="http://www.w3.org/2000/svg">
<path d="M52.5767 22.966C53.6718 22.966 54.5597 22.078 54.5597 20.983C54.5597 19.888 53.6718 19 52.5767 19C51.4817 19 50.5938 19.888 50.5938 20.983C50.5938 22.078 51.4817 22.966 52.5767 22.966Z" fill="#A3ABB3" stroke="#A3ABB3" stroke-width="5.94899" stroke-linecap="round" stroke-linejoin="round"/>
<path d="M28.7799 22.966C29.8749 22.966 30.7629 22.078 30.7629 20.983C30.7629 19.888 29.8749 19 28.7799 19C27.6849 19 26.7969 19.888 26.7969 20.983C26.7969 22.078 27.6849 22.966 28.7799 22.966Z" fill="#A3ABB3" stroke="#A3ABB3" stroke-width="5.94899" stroke-linecap="round" stroke-linejoin="round"/>
<path d="M4.983 22.966C6.07817 22.966 6.966 22.078 6.966 20.983C6.966 19.888 6.07817 19 4.983 19C3.88783 19 3 19.888 3 20.983C3 22.078 3.88783 22.966 4.983 22.966Z" fill="#A3ABB3" stroke="#A3ABB3" stroke-width="5.94899" stroke-linecap="round" stroke-linejoin="round"/>
<path d="M73 3L90.5 20.5L73 38" stroke="#A3ABB3" stroke-width="4.375" stroke-linecap="round" stroke-linejoin="round"/>
</svg>
