<svg width="100" height="171" viewBox="0 0 100 171" fill="none" xmlns="http://www.w3.org/2000/svg">
<path d="M0 169L0 171H100V169H0Z" fill="black"/>
<path d="M0 162L0 166H100V162H0Z" fill="black"/>
<path d="M0 157L0 160H100V157H0Z" fill="black"/>
<path d="M0 152L0 156H100V152H0Z" fill="black"/>
<path d="M0 148L0 150H100V148H0Z" fill="black"/>
<path d="M0 140L0 144H100V140H0Z" fill="black"/>
<path d="M0 126L0 130H100V126H0Z" fill="black"/>
<path d="M0 120L0 122H100V120H0Z" fill="black"/>
<path d="M0 114L0 118H100V114H0Z" fill="black"/>
<path d="M0 110L0 112H100V110H0Z" fill="black"/>
<path d="M0 136L0 138H100V136H0Z" fill="black"/>
<path d="M0 100L0 105H100V100H0Z" fill="black"/>
<path d="M0 92L0 94H100V92H0Z" fill="black"/>
<path d="M0 86L0 90H100V86H0Z" fill="black"/>
<path d="M0 78L0 80H100V78H0Z" fill="black"/>
<path d="M0 72L0 74H100V72H0Z" fill="black"/>
<path d="M0 68L0 70H100V68H0Z" fill="black"/>
<path d="M0 60L0 64H100V60L0 60Z" fill="black"/>
<path d="M0 56L0 58L100 58V56L0 56Z" fill="black"/>
<path d="M0 46L0 51L100 51V46L0 46Z" fill="black"/>
<path d="M0 38L0 42L100 42V38L0 38Z" fill="black"/>
<path d="M0 26L0 28L100 28V26L0 26Z" fill="black"/>
<path d="M0 20L0 24L100 24V20L0 20Z" fill="black"/>
<path d="M0 10L0 15L100 15V10L0 10Z" fill="black"/>
<path d="M0 6L0 8L100 8V6L0 6Z" fill="black"/>
<path d="M0 0L0 4L100 4V0L0 0Z" fill="black"/>
</svg>
