<svg width="35" height="29" viewBox="0 0 35 29" fill="none" xmlns="http://www.w3.org/2000/svg">
<path d="M31.4263 0.330643H4.47432C2.52807 0.330643 0.950317 1.90839 0.950317 3.85464V24.9966C0.950317 26.9429 2.52807 28.5206 4.47432 28.5206H31.4263C33.3726 28.5206 34.9503 26.9429 34.9503 24.9966V3.85464C34.9503 1.90839 33.3726 0.330643 31.4263 0.330643Z" fill="#4592FB"/>
<path d="M10.5223 13.7827H7.23633C6.68404 13.7827 6.23633 14.2304 6.23633 14.7827V18.0687C6.23633 18.6209 6.68404 19.0687 7.23633 19.0687H10.5223C11.0746 19.0687 11.5223 18.6209 11.5223 18.0687V14.7827C11.5223 14.2304 11.0746 13.7827 10.5223 13.7827Z" fill="white"/>
<path d="M0.950317 5.94765L0.950317 10.7827L34.9503 10.7827V5.94765L0.950317 5.94765Z" fill="#185DEE"/>
</svg>
