<svg width="637" height="379" viewBox="0 0 637 379" fill="none" xmlns="http://www.w3.org/2000/svg">
<path opacity="0.53" d="M58.1586 157.851C66.3979 150.841 95.0432 151.527 111.803 151.527C128.563 151.527 161.624 152.269 170.721 163.804C179.819 175.339 154.558 187.622 115.456 187.622C76.3537 187.622 33.6947 178.683 58.1586 157.851Z" fill="#99ADF9"/>
<path d="M520.088 191.708C520.088 191.708 580.4 192.999 602.152 196.672C623.904 200.345 651.588 227.089 627.364 255.247C603.141 283.404 567.272 280.116 465.599 280.116C483.012 224.274 520.088 191.708 520.088 191.708Z" fill="#99ADF9"/>
<path d="M134.811 204.788C134.811 204.788 101.078 199.254 54.4095 206.326C25.7367 210.672 -2.43485 225.99 0.167398 247.914C3.97121 280.04 80.6448 267.825 101.099 285.533C121.553 303.241 76.9783 308.411 64.4752 326.949C51.972 345.488 63.3423 370.645 121.759 374.469C180.176 378.294 361.674 380.244 403.605 374.984C445.536 369.725 471.291 320.619 404.525 294.212C300.277 272.975 134.811 204.788 134.811 204.788Z" fill="#99ADF9"/>
<path d="M550.059 217.366C550.059 271.56 469.43 315.496 319.269 315.496C169.108 315.496 92.688 271.554 92.688 217.366C92.688 163.179 169.149 119.236 319.269 119.236C469.389 119.236 550.059 163.172 550.059 217.366Z" fill="#F0F6FF"/>
<path opacity="0.36" d="M216.971 170.752C216.971 170.752 134.488 179.06 128.556 289.295C161.184 347.623 289.717 333.788 289.717 333.788C289.717 333.788 284.849 222.042 328.991 161.147C420.722 164.113 485.977 163.207 510.695 286.796C561.12 261.09 564.999 205.138 564.999 205.138C564.999 205.138 540.281 126.04 504.193 117.142C468.105 108.244 409.771 119.119 409.771 119.119L216.971 170.752Z" fill="#FF97C9"/>
<g style="mix-blend-mode:multiply" opacity="0.64">
<path d="M478.562 177.495C478.562 204.019 423.139 225.523 319.955 225.523C216.771 225.523 164.184 204.019 164.184 177.495C164.184 150.971 216.744 129.474 319.955 129.474C423.166 129.474 478.562 150.985 478.562 177.495Z" fill="#E1ECFF"/>
</g>
<path d="M391.212 184.629C391.212 184.629 401.319 196.054 402.637 205.282C403.955 214.51 402.857 225.935 413.623 229.67C424.389 233.405 452.76 235.603 461.521 224.397C470.282 213.192 464.377 195.175 448.558 181.553C427.273 162.657 403.076 161.119 403.076 161.119L391.212 184.629Z" fill="#FEC272"/>
<g style="mix-blend-mode:multiply" opacity="0.45">
<path d="M388.054 206.696C388.054 206.696 433.37 203.195 432.34 155.269C397.666 156.986 379.862 181.216 379.862 181.216L388.054 206.696Z" fill="#FEC272"/>
</g>
<path d="M240.171 184.629C240.171 184.629 250.278 196.054 251.597 205.282C252.915 214.51 251.816 225.935 262.582 229.67C273.348 233.405 301.719 235.603 310.48 224.397C319.241 213.192 313.336 195.175 297.517 181.553C276.232 162.657 252.036 161.119 252.036 161.119L240.171 184.629Z" fill="#FEC272"/>
<g style="mix-blend-mode:multiply" opacity="0.45">
<path d="M250.629 172.201C250.629 172.201 274.104 211.125 316.468 188.68C299.364 158.469 269.717 153.436 269.717 153.436L250.629 172.201Z" fill="#FEC272"/>
</g>
<path d="M373.312 16.5743C379.491 16.7803 399.135 15.3453 407.333 39.5277C415.531 63.7101 421.883 81.3422 432.951 97.1204C444.019 112.899 455.293 141.592 432.951 161.662C410.609 181.731 384.387 176.849 372.296 170.897C360.205 164.944 345.848 155.105 349.336 121.509C352.824 87.913 363.48 67.404 364.709 48.9548C365.938 30.5056 367.819 24.3605 373.312 16.5743Z" fill="#FF8D76"/>
<path d="M315.637 0.0957589C347.709 -1.2088 373.772 10.9717 385.637 27.1207C397.502 43.2697 404.423 82.4888 405.906 94.1887C407.389 105.888 412.662 112.15 418.265 119.895C424.272 128.203 434.578 153.841 423.538 170.979C412.497 188.117 394.508 192.511 375.372 183.118C356.092 190.671 339.71 194.543 308.565 189.298C277.421 184.052 247.519 157.611 239.904 104.488C235.51 73.7277 235.455 36.1565 250.203 16.6018C274.805 9.85935 285.275 1.30419 315.637 0.0957589Z" fill="#FEC272"/>
<path d="M250.278 16.5743C243.687 16.7941 222.594 15.2561 213.806 41.1824C205.017 67.1088 198.227 86.0042 186.341 102.922C174.456 119.84 162.392 150.6 186.341 172.132C210.29 193.665 238.414 188.391 251.377 182.02C264.34 175.648 279.72 165.102 275.985 129.068C272.25 93.0351 260.825 71.0636 259.506 51.2893C258.188 31.515 256.211 24.9235 250.278 16.5743Z" fill="#FF8D76"/>
<path d="M317.483 109.953C322.398 109.953 326.382 105.969 326.382 101.055C326.382 96.1403 322.398 92.1563 317.483 92.1563C312.569 92.1563 308.585 96.1403 308.585 101.055C308.585 105.969 312.569 109.953 317.483 109.953Z" fill="#1C3177"/>
<path d="M389.77 109.953C394.684 109.953 398.668 105.969 398.668 101.055C398.668 96.1403 394.684 92.1563 389.77 92.1563C384.856 92.1563 380.872 96.1403 380.872 101.055C380.872 105.969 384.856 109.953 389.77 109.953Z" fill="#1C3177"/>
<path d="M303.552 78.4585C302.866 75.2314 310.871 71.2628 314.95 68.2829C319.028 65.303 325.174 64.1633 328.407 69.6012C331.641 75.0392 320.559 80.1544 316.474 81.0264C312.389 81.8984 304.28 81.9945 303.552 78.4585Z" fill="#FF8D76"/>
<path d="M398.661 77.25C398.929 74.277 391.946 71.1324 388.3 68.6606C384.654 66.1888 379.45 65.5022 377.239 70.638C375.028 75.7738 384.682 79.7768 388.149 80.3398C391.617 80.9028 398.366 80.5114 398.661 77.25Z" fill="#FF8D76"/>
<path d="M360.74 130.277C361.372 126.569 387.518 125.333 389.77 130.277C392.022 135.22 384.964 147.909 377.713 147.909C370.463 147.909 359.092 139.999 360.74 130.277Z" fill="#1C3177"/>
<path d="M378.407 137.363C378.678 144.408 378.356 151.464 377.445 158.455" stroke="#1C3177" stroke-width="7" stroke-miterlimit="10" stroke-linecap="round"/>
<g style="mix-blend-mode:multiply">
<path d="M277.098 229.698C277.098 229.698 280.174 221.458 276.411 214.05" stroke="#FEC272" stroke-width="7" stroke-miterlimit="10" stroke-linecap="round"/>
</g>
<g style="mix-blend-mode:multiply">
<path d="M301.369 228.05C302.398 223.31 301.743 218.359 299.515 214.05" stroke="#FEC272" stroke-width="7" stroke-miterlimit="10" stroke-linecap="round"/>
</g>
<g style="mix-blend-mode:multiply">
<path d="M428.138 229.698C428.138 229.698 431.214 221.458 427.451 214.05" stroke="#FEC272" stroke-width="7" stroke-miterlimit="10" stroke-linecap="round"/>
</g>
<g style="mix-blend-mode:multiply">
<path d="M452.409 228.05C453.443 223.311 452.789 218.359 450.562 214.05" stroke="#FEC272" stroke-width="7" stroke-miterlimit="10" stroke-linecap="round"/>
</g>
<path opacity="0.53" d="M493.331 313.581C501.57 306.564 530.209 307.25 546.976 307.25C563.743 307.25 596.796 307.999 605.894 319.534C614.991 331.069 589.731 343.345 550.629 343.345C511.526 343.345 468.895 334.413 493.331 313.581Z" fill="#99ADF9"/>
</svg>
