<svg width="1920" height="1080" viewBox="0 0 1920 1080" fill="none" xmlns="http://www.w3.org/2000/svg">
<g clip-path="url(#clip0_3_433)">
<rect width="1920" height="1080" fill="white"/>
<path fill-rule="evenodd" clip-rule="evenodd" d="M1514.06 666.999C1550.47 363.795 1214.97 271.315 1200.04 18.719C1191.86 -119.555 1215.7 -401.424 733.803 -325.695C422.862 -275.677 389.643 23.2816 595.322 294.178C642.923 375.906 643.084 446.264 620.894 526.139C598.703 606.014 462.683 725.493 459.809 911.172C451.16 1469.94 1377.69 1802.48 1514.06 666.999Z" fill="#B7DFFF"/>
<path opacity="0.53" d="M700.159 544.851C708.398 537.841 737.043 538.527 753.803 538.527C770.563 538.527 803.624 539.269 812.721 550.804C821.819 562.339 796.558 574.622 757.456 574.622C718.354 574.622 675.695 565.683 700.159 544.851Z" fill="#99ADF9"/>
<path d="M1162.09 578.708C1162.09 578.708 1222.4 579.999 1244.15 583.672C1265.9 587.345 1293.59 614.089 1269.36 642.247C1245.14 670.404 1209.27 667.116 1107.6 667.116C1125.01 611.274 1162.09 578.708 1162.09 578.708Z" fill="#99ADF9"/>
<path d="M776.811 591.788C776.811 591.788 743.078 586.254 696.41 593.326C667.737 597.672 639.565 612.99 642.167 634.914C645.971 667.04 722.645 654.825 743.099 672.533C763.553 690.241 718.978 695.411 706.475 713.949C693.972 732.488 705.342 757.645 763.759 761.469C822.176 765.294 1003.67 767.244 1045.61 761.984C1087.54 756.725 1113.29 707.619 1046.53 681.212C942.277 659.975 776.811 591.788 776.811 591.788Z" fill="#99ADF9"/>
<path d="M1192.06 604.366C1192.06 658.56 1111.43 702.496 961.269 702.496C811.108 702.496 734.688 658.554 734.688 604.366C734.688 550.179 811.149 506.236 961.269 506.236C1111.39 506.236 1192.06 550.172 1192.06 604.366Z" fill="#F0F6FF"/>
<path opacity="0.36" d="M858.971 557.752C858.971 557.752 776.488 566.06 770.556 676.295C803.184 734.623 931.717 720.788 931.717 720.788C931.717 720.788 926.849 609.042 970.991 548.147C1062.72 551.113 1127.98 550.207 1152.7 673.796C1203.12 648.09 1207 592.138 1207 592.138C1207 592.138 1182.28 513.04 1146.19 504.142C1110.1 495.244 1051.77 506.119 1051.77 506.119L858.971 557.752Z" fill="#FF97C9"/>
<g style="mix-blend-mode:multiply" opacity="0.64">
<path d="M1120.56 564.495C1120.56 591.019 1065.14 612.523 961.955 612.523C858.771 612.523 806.184 591.019 806.184 564.495C806.184 537.971 858.744 516.474 961.955 516.474C1065.17 516.474 1120.56 537.985 1120.56 564.495Z" fill="#E1ECFF"/>
</g>
<path d="M1033.21 571.629C1033.21 571.629 1043.32 583.054 1044.64 592.282C1045.96 601.51 1044.86 612.935 1055.62 616.67C1066.39 620.405 1094.76 622.603 1103.52 611.397C1112.28 600.192 1106.38 582.175 1090.56 568.553C1069.27 549.657 1045.08 548.119 1045.08 548.119L1033.21 571.629Z" fill="#FEC272"/>
<g style="mix-blend-mode:multiply" opacity="0.45">
<path d="M1030.05 593.696C1030.05 593.696 1075.37 590.195 1074.34 542.269C1039.67 543.986 1021.86 568.216 1021.86 568.216L1030.05 593.696Z" fill="#FEC272"/>
</g>
<path d="M882.171 571.629C882.171 571.629 892.278 583.054 893.597 592.282C894.915 601.51 893.816 612.935 904.582 616.67C915.348 620.405 943.719 622.603 952.48 611.397C961.241 600.192 955.336 582.175 939.517 568.553C918.232 549.657 894.036 548.119 894.036 548.119L882.171 571.629Z" fill="#FEC272"/>
<g style="mix-blend-mode:multiply" opacity="0.45">
<path d="M892.629 559.201C892.629 559.201 916.104 598.125 958.468 575.68C941.364 545.469 911.717 540.436 911.717 540.436L892.629 559.201Z" fill="#FEC272"/>
</g>
<path d="M1015.31 403.574C1021.49 403.78 1041.14 402.345 1049.33 426.528C1057.53 450.71 1063.88 468.342 1074.95 484.12C1086.02 499.899 1097.29 528.592 1074.95 548.662C1052.61 568.731 1026.39 563.849 1014.3 557.897C1002.2 551.944 987.848 542.105 991.336 508.509C994.824 474.913 1005.48 454.404 1006.71 435.955C1007.94 417.506 1009.82 411.36 1015.31 403.574Z" fill="#FF8D76"/>
<path d="M957.637 387.096C989.709 385.791 1015.77 397.972 1027.64 414.121C1039.5 430.27 1046.42 469.489 1047.91 481.189C1049.39 492.888 1054.66 499.15 1060.26 506.895C1066.27 515.203 1076.58 540.841 1065.54 557.979C1054.5 575.117 1036.51 579.511 1017.37 570.118C998.092 577.671 981.71 581.543 950.565 576.298C919.421 571.052 889.519 544.611 881.904 491.488C877.51 460.728 877.455 423.156 892.203 403.602C916.805 396.859 927.275 388.304 957.637 387.096Z" fill="#FEC272"/>
<path d="M892.278 403.574C885.687 403.794 864.594 402.256 855.806 428.182C847.017 454.109 840.227 473.004 828.341 489.922C816.456 506.84 804.392 537.6 828.341 559.132C852.29 580.665 880.414 575.391 893.377 569.02C906.34 562.648 921.72 552.102 917.985 516.068C914.25 480.035 902.825 458.064 901.506 438.289C900.188 418.515 898.211 411.924 892.278 403.574Z" fill="#FF8D76"/>
<path d="M959.483 496.953C964.398 496.953 968.382 492.969 968.382 488.055C968.382 483.14 964.398 479.156 959.483 479.156C954.569 479.156 950.585 483.14 950.585 488.055C950.585 492.969 954.569 496.953 959.483 496.953Z" fill="#1C3177"/>
<path d="M1031.77 496.953C1036.68 496.953 1040.67 492.969 1040.67 488.055C1040.67 483.14 1036.68 479.156 1031.77 479.156C1026.86 479.156 1022.87 483.14 1022.87 488.055C1022.87 492.969 1026.86 496.953 1031.77 496.953Z" fill="#1C3177"/>
<path d="M945.552 465.458C944.866 462.231 952.871 458.263 956.95 455.283C961.028 452.303 967.174 451.163 970.407 456.601C973.641 462.039 962.559 467.154 958.474 468.026C954.389 468.898 946.28 468.995 945.552 465.458Z" fill="#FF8D76"/>
<path d="M1040.66 464.25C1040.93 461.277 1033.95 458.132 1030.3 455.661C1026.65 453.189 1021.45 452.502 1019.24 457.638C1017.03 462.774 1026.68 466.777 1030.15 467.34C1033.62 467.903 1040.37 467.511 1040.66 464.25Z" fill="#FF8D76"/>
<path d="M1002.74 517.277C1003.37 513.569 1029.52 512.333 1031.77 517.277C1034.02 522.22 1026.96 534.909 1019.71 534.909C1012.46 534.909 1001.09 526.999 1002.74 517.277Z" fill="#1C3177"/>
<path d="M1020.41 524.363C1020.68 531.408 1020.36 538.464 1019.45 545.455" stroke="#1C3177" stroke-width="7" stroke-miterlimit="10" stroke-linecap="round"/>
<g style="mix-blend-mode:multiply">
<path d="M919.098 616.698C919.098 616.698 922.174 608.458 918.411 601.05" stroke="#FEC272" stroke-width="7" stroke-miterlimit="10" stroke-linecap="round"/>
</g>
<g style="mix-blend-mode:multiply">
<path d="M943.369 615.05C944.398 610.31 943.743 605.359 941.515 601.05" stroke="#FEC272" stroke-width="7" stroke-miterlimit="10" stroke-linecap="round"/>
</g>
<g style="mix-blend-mode:multiply">
<path d="M1070.14 616.698C1070.14 616.698 1073.21 608.458 1069.45 601.05" stroke="#FEC272" stroke-width="7" stroke-miterlimit="10" stroke-linecap="round"/>
</g>
<g style="mix-blend-mode:multiply">
<path d="M1094.41 615.05C1095.44 610.311 1094.79 605.359 1092.56 601.05" stroke="#FEC272" stroke-width="7" stroke-miterlimit="10" stroke-linecap="round"/>
</g>
<path opacity="0.53" d="M1135.33 700.581C1143.57 693.564 1172.21 694.25 1188.98 694.25C1205.74 694.25 1238.8 694.999 1247.89 706.534C1256.99 718.069 1231.73 730.345 1192.63 730.345C1153.53 730.345 1110.89 721.413 1135.33 700.581Z" fill="#99ADF9"/>
</g>
<defs>
<clipPath id="clip0_3_433">
<rect width="1920" height="1080" fill="white"/>
</clipPath>
</defs>
</svg>
