<svg width="61" height="58" viewBox="0 0 61 58" fill="none" xmlns="http://www.w3.org/2000/svg">
<g clip-path="url(#clip0_423_1187)">
<ellipse cx="27.4713" cy="33.7917" rx="23.7019" ry="23.1976" fill="#ced3da"/>
<rect width="16.7411" height="2.36473" rx="1.18236" transform="matrix(-0.270991 0.962582 -0.965509 -0.260371 27.8928 25.7911)" fill="#a3abb3"/>
<rect width="16.7457" height="2.3641" rx="1.18205" transform="matrix(0.293824 0.95586 -0.959279 0.282461 27.4702 25.2762)" fill="#a3abb3"/>
<rect x="39.0222" y="31.5884" width="24.4178" height="2.38983" rx="1.19491" transform="rotate(-180 39.0222 31.5884)" fill="#a3abb3"/>
<rect width="16.7457" height="2.3641" rx="1.18205" transform="matrix(0.293824 0.95586 -0.959279 0.282461 18.9149 25.2112)" fill="#a3abb3"/>
<rect width="16.7411" height="2.36473" rx="1.18236" transform="matrix(-0.270991 0.962582 -0.965509 -0.260371 36.4486 25.8559)" fill="#a3abb3"/>
<path d="M57.4662 6.36251L53.6356 6.29707L50.2171 0.404773C50.1715 0.326323 50.1049 0.260636 50.0238 0.214362C49.9428 0.168087 49.8504 0.142868 49.7558 0.141258L47.5605 0.103755C47.2042 0.0976683 46.9414 0.415733 47.0335 0.741447L48.5798 6.21069L45.1323 6.1518L43.717 4.30076C43.618 4.17126 43.4602 4.09339 43.2916 4.09051L41.9513 4.06761C41.6024 4.06165 41.3408 4.36737 41.4199 4.68906L42.4148 8.13522L41.2976 11.5453C41.2071 11.8641 41.4576 12.1786 41.8065 12.1845L43.1468 12.2074C43.3158 12.2103 43.476 12.1379 43.5795 12.0118L45.0599 10.2102L48.5074 10.2691L46.7671 15.6819C46.6634 16.0043 46.9147 16.3315 47.271 16.3375L49.4663 16.3751C49.6587 16.3783 49.838 16.2837 49.9364 16.1274L53.5632 10.3555L57.3938 10.421C58.5786 10.4412 60.6275 9.56753 60.6475 8.4467C60.6675 7.32587 58.6509 6.38275 57.4662 6.36251Z" fill="#ced3da"/>
<path d="M16.4604 56.9895V56.9895C-9.51692 46.0688 -1.05331 7.27818 27.112 8.17061L45.6773 8.75885" stroke="#a3abb3" stroke-width="1.28003"/>
</g>
<defs>
<clipPath id="clip0_423_1187">
<rect width="61" height="58" fill="white"/>
</clipPath>
</defs>
</svg>
