<svg width="72" height="64" viewBox="0 0 72 64" fill="none" xmlns="http://www.w3.org/2000/svg">
<path d="M59.8999 23.9601H45.6374L32.5218 1.00583C32.3469 0.700218 32.0944 0.446245 31.7897 0.269617C31.4851 0.092989 31.1393 -2.20791e-05 30.7872 3.93136e-09H22.6133C21.2867 3.93136e-09 20.3296 1.26914 20.694 2.54451L26.8125 23.9601H13.9764L8.58537 16.7721C8.2085 16.2692 7.61574 15.9734 6.98803 15.9734H1.99759C0.698506 15.9734 -0.254907 17.1939 0.0608173 18.4543L3.99302 31.9468L0.0608173 45.4393C-0.254907 46.6997 0.698506 47.9202 1.99759 47.9202H6.98803C7.61699 47.9202 8.2085 47.6245 8.58537 47.1215L13.9764 39.9335H26.8125L20.694 61.3479C20.3296 62.6232 21.2867 63.8936 22.6133 63.8936H30.7872C31.5035 63.8936 32.1649 63.5093 32.5205 62.8878L45.6374 39.9335H59.8999C64.3113 39.9335 71.88 36.3582 71.88 31.9468C71.88 27.5354 64.3113 23.9601 59.8999 23.9601Z" fill="#EBEEF2"/>
</svg>
